<svg width="40" height="40" fill="none" xmlns="http://www.w3.org/2000/svg"><path d="m18.125 30.903 2.43-.903" stroke="#B4B4B4" stroke-width="2" stroke-miterlimit="10" stroke-linecap="round" stroke-linejoin="round"/><path d="M23.806 16.372a.429.429 0 0 0-.52.284c-.38 1.204-1.703 3.965-5.826 5.601l.003.005s-.423.113-.246.57c.154.397.545.31.649.279 4.612-1.85 5.99-5.063 6.359-6.3.033-.11-.008-.36-.42-.439z" fill="#B4B4B4"/><path d="M17.57 22.708s4.652-1.041 6.319-6.597" stroke="#B4B4B4" stroke-width="2" stroke-miterlimit="10" stroke-linecap="round" stroke-linejoin="round"/><path d="M22.778 12.222s1.667-5 6.11-2.222c0 0 4.584.417 4.793 1.875 0 0-4.236.903-5.348 3.125-1.11 2.222 1.667 3.889-2.847 8.68 0 0-2.153 2.431-5.486 2.431l-.555 1.111L20.555 30l3.334.555" stroke="#B4B4B4" stroke-width="2" stroke-miterlimit="10" stroke-linecap="round" stroke-linejoin="round"/><path d="M5.625 26.042s13.82-12.709 18.264-12.153c4.444.556 1.111 7.361-3.056 9.792-4.166 2.43-15.208 2.36-15.208 2.36z" stroke="#B4B4B4" stroke-width="2" stroke-miterlimit="10" stroke-linecap="round" stroke-linejoin="round"/></svg>