<svg width="40" height="40" viewBox="0 0 40 40" fill="none" xmlns="http://www.w3.org/2000/svg">
<path d="M18.125 30.9028L20.5556 30" stroke="#B4B4B4" stroke-width="2" stroke-miterlimit="10" stroke-linecap="round" stroke-linejoin="round"/>
<path d="M23.8056 16.3723C23.6993 16.3439 23.5861 16.3575 23.4895 16.4103C23.3929 16.463 23.3203 16.5508 23.2867 16.6556C22.9061 17.8595 21.5834 20.6206 17.46 22.2573L17.4634 22.2623C17.4634 22.2623 17.04 22.3751 17.2172 22.8328C17.3706 23.2289 17.7617 23.1417 17.8656 23.1106C22.4778 21.2617 23.8556 18.0484 24.225 16.8106C24.2578 16.7006 24.2167 16.4512 23.8056 16.3723Z" fill="#B4B4B4"/>
<path d="M17.5695 22.7083C17.5695 22.7083 22.2222 21.6666 23.8889 16.1111" stroke="#B4B4B4" stroke-width="2" stroke-miterlimit="10" stroke-linecap="round" stroke-linejoin="round"/>
<path d="M22.7778 12.2222C22.7778 12.2222 24.4445 7.22217 28.8889 9.99995C28.8889 9.99995 33.4722 10.4166 33.6806 11.8749C33.6806 11.8749 29.4445 12.7777 28.3333 14.9999C27.2222 17.2222 30 18.8888 25.4861 23.6805C25.4861 23.6805 23.3333 26.1111 20 26.1111L19.4445 27.2222L20.5556 29.9999L23.8889 30.5555" stroke="#B4B4B4" stroke-width="2" stroke-miterlimit="10" stroke-linecap="round" stroke-linejoin="round"/>
<path d="M5.625 26.0417C5.625 26.0417 19.4444 13.3334 23.8889 13.8889C28.3333 14.4445 25 21.25 20.8333 23.6806C16.6667 26.1111 5.625 26.0417 5.625 26.0417Z" stroke="#B4B4B4" stroke-width="2" stroke-miterlimit="10" stroke-linecap="round" stroke-linejoin="round"/>
</svg>
