<svg width="35" height="37" fill="none" xmlns="http://www.w3.org/2000/svg"><g filter="url(#a)" stroke="#B4B4B4" stroke-width="2" stroke-linecap="round" stroke-linejoin="round"><path d="M12.667 18.667v.666m10.666-.666v.666M18 6.667c.893 0 1.8.12 2.667.346C23.04 4.347 27.373 3.227 29.227 4c1.866.773-.56 9.333-.56 9.333C29.427 14.76 30 16.32 30 17.92 30 23.867 24.627 28 18 28S6 24 6 17.92c0-1.667.667-3.2 1.333-4.587 0 0-2.52-8.56-.666-9.333 1.853-.773 6.293.307 8.666 2.973.875-.2 1.77-.304 2.667-.306z"/><path d="M17 21.667h2l-1 1-1-1z"/></g><defs><filter id="a" x="-2" y="0" width="40" height="40" filterUnits="userSpaceOnUse" color-interpolation-filters="sRGB"><feFlood flood-opacity="0" result="BackgroundImageFix"/><feColorMatrix in="SourceAlpha" values="0 0 0 0 0 0 0 0 0 0 0 0 0 0 0 0 0 0 127 0" result="hardAlpha"/><feOffset dy="4"/><feGaussianBlur stdDeviation="2"/><feComposite in2="hardAlpha" operator="out"/><feColorMatrix values="0 0 0 0 0 0 0 0 0 0 0 0 0 0 0 0 0 0 0.25 0"/><feBlend in2="BackgroundImageFix" result="effect1_dropShadow_68_268"/><feColorMatrix in="SourceAlpha" values="0 0 0 0 0 0 0 0 0 0 0 0 0 0 0 0 0 0 127 0" result="hardAlpha"/><feOffset dy="4"/><feGaussianBlur stdDeviation="2"/><feComposite in2="hardAlpha" operator="out"/><feColorMatrix values="0 0 0 0 0 0 0 0 0 0 0 0 0 0 0 0 0 0 0.25 0"/><feBlend in2="effect1_dropShadow_68_268" result="effect2_dropShadow_68_268"/><feBlend in="SourceGraphic" in2="effect2_dropShadow_68_268" result="shape"/></filter></defs></svg>