<svg width="35" height="37" viewBox="0 0 35 37" fill="none" xmlns="http://www.w3.org/2000/svg">
<g filter="url(#filter0_dd_68_268)">
<path d="M12.6666 18.6667V19.3333M23.3333 18.6667V19.3333M18 6.66665C18.8933 6.66665 19.8 6.78665 20.6666 7.01332C23.04 4.34665 27.3733 3.22665 29.2266 3.99999C31.0933 4.77332 28.6666 13.3333 28.6666 13.3333C29.4266 14.76 30 16.32 30 17.92C30 23.8667 24.6266 28 18 28C11.3733 28 5.99998 24 5.99998 17.92C5.99998 16.2533 6.66665 14.72 7.33332 13.3333C7.33332 13.3333 4.81332 4.77332 6.66665 3.99999C8.51998 3.22665 12.96 4.30665 15.3333 6.97332C16.208 6.77213 17.1024 6.66927 18 6.66665Z" stroke="#B4B4B4" stroke-width="2" stroke-linecap="round" stroke-linejoin="round"/>
<path d="M17 21.6666H19L18 22.6666L17 21.6666Z" stroke="#B4B4B4" stroke-width="2" stroke-linecap="round" stroke-linejoin="round"/>
</g>
<defs>
<filter id="filter0_dd_68_268" x="-2" y="0" width="40" height="40" filterUnits="userSpaceOnUse" color-interpolation-filters="sRGB">
<feFlood flood-opacity="0" result="BackgroundImageFix"/>
<feColorMatrix in="SourceAlpha" type="matrix" values="0 0 0 0 0 0 0 0 0 0 0 0 0 0 0 0 0 0 127 0" result="hardAlpha"/>
<feOffset dy="4"/>
<feGaussianBlur stdDeviation="2"/>
<feComposite in2="hardAlpha" operator="out"/>
<feColorMatrix type="matrix" values="0 0 0 0 0 0 0 0 0 0 0 0 0 0 0 0 0 0 0.25 0"/>
<feBlend mode="normal" in2="BackgroundImageFix" result="effect1_dropShadow_68_268"/>
<feColorMatrix in="SourceAlpha" type="matrix" values="0 0 0 0 0 0 0 0 0 0 0 0 0 0 0 0 0 0 127 0" result="hardAlpha"/>
<feOffset dy="4"/>
<feGaussianBlur stdDeviation="2"/>
<feComposite in2="hardAlpha" operator="out"/>
<feColorMatrix type="matrix" values="0 0 0 0 0 0 0 0 0 0 0 0 0 0 0 0 0 0 0.25 0"/>
<feBlend mode="normal" in2="effect1_dropShadow_68_268" result="effect2_dropShadow_68_268"/>
<feBlend mode="normal" in="SourceGraphic" in2="effect2_dropShadow_68_268" result="shape"/>
</filter>
</defs>
</svg>
