<svg width="32" height="32" fill="none" xmlns="http://www.w3.org/2000/svg"><path d="m16 21-1.37 1.075h-1.111l-.038 1.704.334 1.555.481.852 1.26.667 2.036-.26.704-.777.445-1.889-.111-1.778-.89.111L16 21z" fill="#EA5A47"/><path d="m14.444 16.408-.703 1.667.963.556.555.222 1.926.074 1.296-1-.778-1.444-3.259-.075z" fill="#3F3F3F"/><path d="M13.114 13.382s-.803.552-1.222.297a.89.89 0 0 1 .925-1.519c.419.256.297 1.222.297 1.222z" fill="#444"/><path d="M16.754 18.103a.445.445 0 0 0 .647.335l.97-.51-.515-1.21a.445.445 0 0 0-.41-.27h-2.73a.444.444 0 0 0-.417.288l-.484 1.29 1.028.423a.444.444 0 0 0 .606-.332m-1.922 4.117s-.319 3.908 1.337 4.417c1.176.361 2.289.237 2.694-.111.39-.334 1.17-1.989.812-4.306" stroke="#444" stroke-width="2" stroke-miterlimit="10" stroke-linecap="round" stroke-linejoin="round"/><path d="M19.673 13.382s.802.552 1.221.297a.889.889 0 0 0-.924-1.519c-.42.256-.297 1.222-.297 1.222z" fill="#444"/><path d="M11.389 19.04c-.211 1.6.993 2.556 1.904 3.04a1.518 1.518 0 0 0 1.652-.14l1.147-.9 1.148.9a1.518 1.518 0 0 0 1.652.14c.91-.484 2.115-1.44 1.904-3.04" stroke="#444" stroke-width="2" stroke-miterlimit="10" stroke-linecap="round" stroke-linejoin="round"/><path d="M8.867 12.603c-1.03 2.293-.226 5.789.053 6.834a.88.88 0 0 1-.056.606l-.884 1.864a.887.887 0 0 1-1.48.195c-1.42-1.682-3.804-5.062-2.911-7.415 3.139-8.271 7.053-8.064 7.053-8.064 1.264-.86 5.824-3.083 11.027.389 0 0 3.837-.764 6.64 7.528.8 2.372-1.525 5.718-2.912 7.397a.887.887 0 0 1-1.485-.19l-.878-1.851a.88.88 0 0 1-.057-.606c.28-1.045 1.083-4.54.054-6.833" stroke="#444" stroke-width="2" stroke-miterlimit="10" stroke-linecap="round" stroke-linejoin="round"/><path d="M23.391 20.65s-1.367 2.987-3.468 3.676m-11.284-3.45s1.368 2.702 3.469 3.391m3.984-3.227v-1.347" stroke="#444" stroke-width="2" stroke-miterlimit="10" stroke-linecap="round" stroke-linejoin="round"/></svg>