<svg width="32" height="32" viewBox="0 0 32 32" fill="none" xmlns="http://www.w3.org/2000/svg">
<path d="M27.5435 12.4265C27.055 9.05503 25.047 6.72353 21.688 5.39153C22.2605 5.08903 22.6305 4.93753 22.6305 4.93753C21.0125 4.36753 19.608 4.03553 18.392 3.88453C19.0315 3.40303 19.4585 3.22003 19.4585 3.22003C9.5825 1.82703 4.7125 7.32003 4.4065 12.434C2.4715 12.7735 1 14.455 1 16.4845C1 18.493 2.4415 20.1615 4.348 20.5245C4.566 25.232 9.698 29 15.9995 29C22.302 29 27.434 25.232 27.652 20.5245C29.558 20.161 31 18.492 31 16.4845C31 14.4385 29.5025 12.7455 27.5435 12.4265ZM4.4505 19.0685C3.2955 18.7685 2.439 17.731 2.439 16.4845C2.439 15.2765 3.2455 14.2655 4.347 13.9315C4.3715 15.0125 4.656 16.046 5.154 16.9985C4.81484 17.6484 4.57757 18.3466 4.4505 19.0685ZM22.274 19.962C22.938 20.79 23.327 21.757 23.327 22.7945C23.327 25.8355 20.046 28.2995 15.9995 28.2995C11.953 28.2995 8.6725 25.8355 8.6725 22.7945C8.6725 21.757 9.061 20.79 9.726 19.962C7.4475 18.583 5.989 16.472 5.989 14.1025C5.989 5.63553 15.9995 11.0295 15.9995 11.0295C15.9995 11.0295 26.0105 5.63603 26.0105 14.1025C26.0105 16.4715 24.552 18.583 22.274 19.962ZM27.5495 19.0685C27.4222 18.3465 27.1851 17.6483 26.8465 16.998C27.3445 16.0455 27.6285 15.012 27.653 13.931C28.7545 14.2655 29.5605 15.276 29.5605 16.484C29.5605 17.731 28.7045 18.7685 27.5495 19.0685Z" fill="#B4B4B4"/>
<path d="M17.0725 20.4015C17.349 20.4015 17.5725 19.942 17.5725 19.373C17.5725 18.8065 17.349 18.3435 17.0725 18.3435C16.7955 18.3435 16.5725 18.8065 16.5725 19.373C16.5725 19.942 16.7955 20.4015 17.0725 20.4015ZM14.9265 20.4015C15.203 20.4015 15.4265 19.942 15.4265 19.373C15.4265 18.8065 15.203 18.3435 14.9265 18.3435C14.6495 18.3435 14.4265 18.8065 14.4265 19.373C14.4265 19.942 14.6495 20.4015 14.9265 20.4015Z" fill="#B4B4B4"/>
<path d="M20.341 18.123C21.3075 18.123 22.091 17.1157 22.091 15.873C22.091 14.6304 21.3075 13.623 20.341 13.623C19.3745 13.623 18.591 14.6304 18.591 15.873C18.591 17.1157 19.3745 18.123 20.341 18.123Z" fill="#B4B4B4"/>
<path d="M11.659 18.123C12.6255 18.123 13.409 17.1157 13.409 15.873C13.409 14.6304 12.6255 13.623 11.659 13.623C10.6925 13.623 9.909 14.6304 9.909 15.873C9.909 17.1157 10.6925 18.123 11.659 18.123Z" fill="#B4B4B4"/>
<path d="M15.999 22.7195C13.6545 22.7195 11.2695 22.084 11.0765 22.2485C10.364 22.8555 12.5485 25.718 15.999 25.737C19.449 25.7195 21.635 22.856 20.921 22.2485C20.728 22.0845 18.344 22.72 15.999 22.7195Z" fill="#B4B4B4"/>
</svg>
