<svg width="32" height="32" fill="none" xmlns="http://www.w3.org/2000/svg"><path d="M27.544 12.427c-.489-3.372-2.497-5.703-5.856-7.035.573-.303.943-.454.943-.454-1.619-.57-3.023-.902-4.239-1.053.64-.482 1.067-.665 1.067-.665-9.877-1.393-14.746 4.1-15.052 9.214A4.116 4.116 0 0 0 1 16.484a4.117 4.117 0 0 0 3.348 4.04C4.566 25.233 9.698 29 15.999 29c6.303 0 11.435-3.768 11.653-8.476A4.118 4.118 0 0 0 31 16.485a4.117 4.117 0 0 0-3.456-4.058zM4.45 19.069a2.674 2.674 0 0 1-2.011-2.584c0-1.208.806-2.22 1.908-2.553a6.925 6.925 0 0 0 .807 3.066 7.156 7.156 0 0 0-.704 2.07zm17.824.893c.664.828 1.053 1.795 1.053 2.832 0 3.041-3.281 5.505-7.328 5.505-4.046 0-7.327-2.463-7.327-5.505 0-1.037.389-2.004 1.054-2.832-2.279-1.379-3.737-3.49-3.737-5.86 0-8.466 10.01-3.072 10.01-3.072S26.01 5.636 26.01 14.102c0 2.37-1.458 4.481-3.736 5.86zm5.275-.893a7.184 7.184 0 0 0-.703-2.071 6.925 6.925 0 0 0 .807-3.067 2.672 2.672 0 0 1 1.908 2.553 2.674 2.674 0 0 1-2.012 2.584z" fill="#B4B4B4"/><path d="M17.073 20.401c.276 0 .5-.459.5-1.028 0-.567-.224-1.03-.5-1.03-.277 0-.5.463-.5 1.03 0 .569.223 1.028.5 1.028zm-2.146 0c.276 0 .5-.459.5-1.028 0-.567-.224-1.03-.5-1.03-.277 0-.5.463-.5 1.03 0 .569.223 1.028.5 1.028zM20.341 18.123c.966 0 1.75-1.007 1.75-2.25s-.784-2.25-1.75-2.25-1.75 1.007-1.75 2.25.784 2.25 1.75 2.25zM11.659 18.123c.966 0 1.75-1.007 1.75-2.25s-.784-2.25-1.75-2.25-1.75 1.007-1.75 2.25.784 2.25 1.75 2.25zM15.999 22.72c-2.345 0-4.73-.636-4.923-.471-.712.607 1.473 3.469 4.923 3.488 3.45-.017 5.636-2.881 4.922-3.488-.193-.165-2.577.471-4.922.47z" fill="#B4B4B4"/></svg>