<svg width="32" height="32" viewBox="0 0 32 32" fill="none" xmlns="http://www.w3.org/2000/svg">
<g clip-path="url(#clip0_68_291)">
<mask id="mask0_68_291" style="mask-type:luminance" maskUnits="userSpaceOnUse" x="0" y="0" width="32" height="32">
<path d="M0 0H32V32H0V0Z" fill="white"/>
</mask>
<g mask="url(#mask0_68_291)">
<path d="M11.282 7.564C11.622 7.564 11.9481 7.42893 12.1885 7.18851C12.4289 6.94809 12.564 6.62201 12.564 6.282C12.564 5.94199 12.4289 5.61591 12.1885 5.37549C11.9481 5.13507 11.622 5 11.282 5C10.942 5 10.6159 5.13507 10.3755 5.37549C10.1351 5.61591 10 5.94199 10 6.282C10 6.62201 10.1351 6.94809 10.3755 7.18851C10.6159 7.42893 10.942 7.564 11.282 7.564Z" fill="#B4B4B4"/>
<path d="M3.525 11.2531C3.02901 10.8025 2.64313 10.244 2.39711 9.62071C2.15108 8.99741 2.05149 8.32594 2.106 7.65806L2.107 7.64806C2.17733 6.8341 2.47234 6.05567 2.95914 5.39954C3.44594 4.74341 4.1054 4.23538 4.864 3.93206C5.43777 2.79645 6.30382 1.83427 7.373 1.14457C8.44217 0.454871 9.67584 0.0625724 10.947 0.00806047C14.622 -0.16894 17.737 2.42306 18.383 5.88306L21.202 19.6261L27.094 19.0641L27.108 19.0631C28.594 18.9431 29.973 20.1051 29.95 21.7051V23.8761C29.95 26.6961 27.669 28.9961 24.83 28.9961H16.96V29.4961H18.21C18.62 29.4961 18.96 29.8361 18.96 30.2461C18.96 30.6561 18.62 30.9961 18.21 30.9961H8.71C8.51109 30.9961 8.32032 30.917 8.17967 30.7764C8.03902 30.6357 7.96 30.445 7.96 30.2461C7.96 30.0471 8.03902 29.8564 8.17967 29.7157C8.32032 29.5751 8.51109 29.4961 8.71 29.4961H11.46L11.671 28.7441C6.172 27.6161 2 22.8401 2 17.0461C2 14.9691 2.552 12.9841 3.525 11.2531ZM6.518 9.73506C6.513 10.2021 6.358 10.6611 6.06 11.0361C5.81714 11.351 5.59341 11.6803 5.39 12.0221C4.48239 13.5409 4.00213 15.2767 4 17.0461C4 22.5461 8.55 26.9961 14.17 26.9961H24.83C26.56 26.9961 27.95 25.5961 27.95 23.8761V21.6861C27.9514 21.5986 27.9343 21.5119 27.8999 21.4315C27.8655 21.3511 27.8146 21.2789 27.7505 21.2194C27.6863 21.16 27.6104 21.1148 27.5276 21.0866C27.4448 21.0585 27.3571 21.048 27.27 21.0561L20.616 21.6911L20.728 22.2351L21.291 24.9751C21.308 25.0591 21.316 25.1431 21.316 25.2261C21.3168 25.3847 21.2862 25.542 21.226 25.6887C21.1657 25.8355 21.0771 25.9689 20.9651 26.0813C20.8531 26.1937 20.72 26.2828 20.5734 26.3435C20.4268 26.4042 20.2697 26.4353 20.111 26.4351H20.078L20.045 26.4301C14.41 25.6781 10.061 20.8491 10.061 15.0051V14.9951C10.061 14.6001 10.081 14.2051 10.123 13.8091C10.135 13.6591 10.158 13.4971 10.193 13.3431H10.198C10.4088 12.3449 10.9564 11.4496 11.749 10.8073C12.5415 10.1649 13.5308 9.8146 14.551 9.81506C15.5697 9.81355 16.558 10.1616 17.351 10.8011L16.42 6.26606C16.1908 5.02507 15.5192 3.90937 14.5298 3.12596C13.5404 2.34255 12.3005 1.94464 11.04 2.00606C9.99939 2.04957 8.99625 2.40673 8.16229 3.03064C7.32832 3.65455 6.70251 4.51606 6.367 5.50206C7.69 5.46206 8.917 6.17606 9.281 7.29906C9.34329 7.4785 9.37506 7.66712 9.375 7.85706C9.375 9.02106 8.259 9.80206 7.11 9.80206C6.907 9.80206 6.708 9.77906 6.518 9.73506ZM11.191 13.4821C11.5363 15.6319 12.5393 17.6218 14.062 19.1782C15.5847 20.7345 17.5523 21.7808 19.694 22.1731L19.62 21.8101V21.8671L17.856 13.2681C17.643 12.5576 17.2062 11.935 16.6107 11.4929C16.0151 11.0509 15.2927 10.8131 14.551 10.8151C12.927 10.8151 11.551 11.9351 11.191 13.4821ZM15.46 29.4961V28.9961H14.17C13.814 28.9961 13.461 28.9811 13.113 28.9521L12.96 29.4961H15.46ZM8.33 7.61006C8.138 7.00806 7.389 6.46806 6.387 6.50106C5.373 6.53606 4.666 7.18906 4.597 7.84906C4.557 8.27106 4.755 8.69206 5.15 8.99206C5.18 8.78906 5.273 8.60606 5.405 8.46206L5.75 8.08406L6.12 8.43706C6.343 8.65006 6.695 8.80206 7.11 8.80206C7.905 8.80206 8.375 8.29006 8.375 7.85706C8.37497 7.77769 8.36145 7.6989 8.335 7.62406L8.332 7.61706L8.33 7.61006Z" fill="#B4B4B4"/>
</g>
</g>
<defs>
<clipPath id="clip0_68_291">
<rect width="32" height="32" fill="white"/>
</clipPath>
</defs>
</svg>
