<svg width="40" height="40" viewBox="0 0 40 40" fill="none" xmlns="http://www.w3.org/2000/svg">
<path d="M28.3334 23.3334C27.9334 22.9334 27.6 22.5 27.25 22.0834C29.1667 19.1667 31.6667 14.2667 31.6667 8.33337C31.6667 5.08337 30.4334 3.33337 28.3334 3.33337C25.7667 3.33337 21.7334 6.76671 20 13.2834C18.2667 6.76671 14.2334 3.33337 11.6667 3.33337C9.56671 3.33337 8.33337 5.08337 8.33337 8.33337C8.33337 14.2667 10.8334 19.1667 12.75 22.0834C12.4 22.5 12.0667 22.9334 11.6667 23.3334C11.25 23.75 8.33337 25.65 8.33337 29.1667C8.33337 33.3334 11.6667 36.6667 15.8334 36.6667C18.3334 36.6667 20 35.8334 20 35.8334C20 35.8334 21.6667 36.6667 24.1667 36.6667C28.3334 36.6667 31.6667 33.3334 31.6667 29.1667C31.6667 25.65 28.75 23.75 28.3334 23.3334ZM28.1334 6.71671C28.2334 7.00004 28.3334 7.50004 28.3334 8.33337C28.3334 13.0667 26.4834 17.0667 24.8834 19.6334C24.25 19.1667 23.5 18.8334 22.55 18.6C22.95 11.0667 26.6167 7.21671 28.1334 6.71671ZM11.6667 8.33337C11.6667 7.50004 11.7667 7.00004 11.8667 6.71671C13.3834 7.21671 17.05 11.0667 17.5 18.6C16.5 18.8334 15.75 19.1667 15.1334 19.6334C13.5167 17.0667 11.6667 13.0667 11.6667 8.33337ZM24.1667 33.3334C22.5 33.3334 21.1667 32.7834 20.4667 32.4C21.1667 32.1 21.6667 31.2167 21.6667 30.8334C21.6667 30.3667 20.9167 30 20 30C19.0834 30 18.3334 30.3667 18.3334 30.8334C18.3334 31.2167 18.8334 32.1 19.5334 32.4C18.8334 32.7834 17.5 33.3334 15.8334 33.3334C14.7283 33.3334 13.6685 32.8944 12.8871 32.113C12.1057 31.3316 11.6667 30.2718 11.6667 29.1667C11.6667 28 12.3834 27.1 13.3334 26.2834C14.0667 25.6834 14.35 25.4167 15.5 24C16.7667 22.4167 17.3167 21.6667 20 21.6667C22.6834 21.6667 23.2334 22.4167 24.5 24C25.65 25.4167 25.9334 25.6834 26.6667 26.2834C27.6167 27.1 28.3334 28 28.3334 29.1667C28.3334 30.2718 27.8944 31.3316 27.113 32.113C26.3316 32.8944 25.2718 33.3334 24.1667 33.3334ZM23.3334 26.6667C23.3334 27.35 22.9667 27.9167 22.5 27.9167C22.0334 27.9167 21.6667 27.35 21.6667 26.6667C21.6667 25.9834 22.0334 25.4167 22.5 25.4167C22.9667 25.4167 23.3334 25.9834 23.3334 26.6667ZM18.3334 26.6667C18.3334 27.35 17.9667 27.9167 17.5 27.9167C17.0334 27.9167 16.6667 27.35 16.6667 26.6667C16.6667 25.9834 17.0334 25.4167 17.5 25.4167C17.9667 25.4167 18.3334 25.9834 18.3334 26.6667Z" fill="#B4B4B4"/>
</svg>
