<svg width="40" height="40" fill="none" xmlns="http://www.w3.org/2000/svg"><path d="M28.333 23.333c-.4-.4-.733-.833-1.083-1.25 1.917-2.916 4.417-7.816 4.417-13.75 0-3.25-1.234-5-3.334-5-2.566 0-6.6 3.434-8.333 9.95-1.733-6.516-5.767-9.95-8.333-9.95-2.1 0-3.334 1.75-3.334 5 0 5.934 2.5 10.834 4.417 13.75-.35.417-.683.85-1.083 1.25-.417.417-3.334 2.317-3.334 5.834 0 4.166 3.334 7.5 7.5 7.5 2.5 0 4.167-.834 4.167-.834s1.667.834 4.167.834c4.166 0 7.5-3.334 7.5-7.5 0-3.517-2.917-5.417-3.334-5.834zm-.2-16.616c.1.283.2.783.2 1.616 0 4.734-1.85 8.734-3.45 11.3-.633-.466-1.383-.8-2.333-1.033.4-7.533 4.067-11.383 5.583-11.883zM11.667 8.333c0-.833.1-1.333.2-1.616 1.516.5 5.183 4.35 5.633 11.883-1 .233-1.75.567-2.367 1.033-1.616-2.566-3.466-6.566-3.466-11.3zm12.5 25c-1.667 0-3-.55-3.7-.933.7-.3 1.2-1.183 1.2-1.567 0-.466-.75-.833-1.667-.833s-1.667.367-1.667.833c0 .384.5 1.267 1.2 1.567-.7.383-2.033.933-3.7.933a4.167 4.167 0 0 1-4.166-4.166c0-1.167.716-2.067 1.666-2.884.734-.6 1.017-.866 2.167-2.283 1.267-1.583 1.817-2.333 4.5-2.333s3.233.75 4.5 2.333c1.15 1.417 1.433 1.683 2.167 2.283.95.817 1.666 1.717 1.666 2.884a4.167 4.167 0 0 1-4.166 4.166zm-.834-6.666c0 .683-.366 1.25-.833 1.25-.467 0-.833-.567-.833-1.25 0-.684.366-1.25.833-1.25.467 0 .833.566.833 1.25zm-5 0c0 .683-.366 1.25-.833 1.25-.467 0-.833-.567-.833-1.25 0-.684.366-1.25.833-1.25.467 0 .833.566.833 1.25z" fill="#B4B4B4"/></svg>