<svg width="18" height="21" viewBox="0 0 18 21" fill="none" xmlns="http://www.w3.org/2000/svg">
<path d="M17.619 6.7C16.579 2.07 12.539 0 8.99902 0H8.98902C5.45902 0 1.42902 2.07 0.379018 6.69C-0.800982 11.85 2.35902 16.22 5.21902 18.98C6.23274 19.9612 7.58822 20.5098 8.99902 20.51C10.359 20.51 11.719 20 12.769 18.98C15.629 16.22 18.789 11.86 17.619 6.7ZM11.749 9.75H9.74902V11.75C9.74902 12.16 9.40902 12.5 8.99902 12.5C8.58902 12.5 8.24902 12.16 8.24902 11.75V9.75H6.24902C5.83902 9.75 5.49902 9.41 5.49902 9C5.49902 8.59 5.83902 8.25 6.24902 8.25H8.24902V6.25C8.24902 5.84 8.58902 5.5 8.99902 5.5C9.40902 5.5 9.74902 5.84 9.74902 6.25V8.25H11.749C12.159 8.25 12.499 8.59 12.499 9C12.499 9.41 12.159 9.75 11.749 9.75Z" fill="#D2D2D2"/>
</svg>
