<svg width="32" height="32" viewBox="0 0 32 32" fill="none" xmlns="http://www.w3.org/2000/svg">
<path d="M16 21.0009L14.6298 22.0751H13.5187L13.4813 23.7786L13.8147 25.3342L14.2964 26.1862L15.5555 26.8529L17.5924 26.5937L18.2964 25.816L18.7409 23.9271L18.6298 22.1493L17.7409 22.2604L16 21.0009Z" fill="#EA5A47"/>
<path d="M14.4444 16.4084L13.7408 18.0751L14.7035 18.6307L15.2591 18.8529L17.1853 18.9271L18.4813 17.9271L17.7035 16.4827L14.4444 16.4084Z" fill="#3F3F3F"/>
<path d="M13.1138 13.3818C13.1138 13.3818 12.3115 13.9338 11.8924 13.6787C11.7927 13.618 11.7059 13.5382 11.637 13.444C11.5681 13.3498 11.5185 13.2429 11.4909 13.1294C11.4633 13.016 11.4583 12.8982 11.4762 12.7829C11.4942 12.6675 11.5346 12.5568 11.5953 12.4571C11.7179 12.2557 11.9155 12.1113 12.1446 12.0556C12.258 12.028 12.3757 12.023 12.4911 12.0409C12.6065 12.0589 12.7172 12.0993 12.8169 12.16C13.236 12.4156 13.1138 13.3818 13.1138 13.3818Z" fill="#444444"/>
<path d="M16.7542 18.1027C16.7637 18.1736 16.79 18.2412 16.8312 18.2998C16.8723 18.3583 16.9269 18.406 16.9905 18.4389C17.054 18.4718 17.1245 18.4889 17.196 18.4887C17.2676 18.4885 17.338 18.4711 17.4014 18.4378L18.3702 17.9285L17.8556 16.7178C17.8215 16.6376 17.7645 16.5691 17.6918 16.521C17.6191 16.4729 17.5339 16.4472 17.4467 16.4471H14.7151C14.6247 16.4472 14.5364 16.4748 14.4621 16.5264C14.3877 16.5779 14.3309 16.6509 14.2991 16.7356L13.8147 18.0258L14.8427 18.4489C14.904 18.4741 14.9701 18.4853 15.0363 18.4816C15.1024 18.4779 15.1669 18.4595 15.2251 18.4276C15.2832 18.3958 15.3334 18.3514 15.3722 18.2976C15.4109 18.2439 15.4371 18.1821 15.4489 18.1169M13.5271 22.2343C13.5271 22.2343 13.208 26.1423 14.864 26.6507C16.0396 27.012 17.1529 26.8876 17.5582 26.5396C17.9471 26.2063 18.728 24.5511 18.3702 22.2343" stroke="#444444" stroke-width="2" stroke-miterlimit="10" stroke-linecap="round" stroke-linejoin="round"/>
<path d="M19.6728 13.3818C19.6728 13.3818 20.4751 13.9338 20.8942 13.6787C21.0956 13.5561 21.24 13.3585 21.2957 13.1294C21.3514 12.9004 21.3139 12.6585 21.1913 12.4571C21.0687 12.2557 20.8711 12.1113 20.642 12.0556C20.4129 11.9999 20.1711 12.0374 19.9697 12.16C19.5502 12.4156 19.6728 13.3818 19.6728 13.3818Z" fill="#444444"/>
<path d="M11.3889 19.04C11.1778 20.6409 12.3818 21.5956 13.2929 22.08C13.5523 22.2193 13.8466 22.2802 14.1401 22.2552C14.4335 22.2302 14.7132 22.1204 14.9453 21.9391L16.092 21.0396L17.2396 21.9391C17.4716 22.1203 17.7513 22.2301 18.0446 22.2552C18.3379 22.2803 18.6321 22.2196 18.8916 22.0804C19.8027 21.5956 21.0071 20.6404 20.796 19.0396" stroke="#444444" stroke-width="2" stroke-miterlimit="10" stroke-linecap="round" stroke-linejoin="round"/>
<path d="M8.8667 12.6031C7.83737 14.8965 8.64137 18.392 8.92003 19.4369C8.97384 19.6391 8.95383 19.8539 8.86359 20.0427L7.98003 21.9067C7.70314 22.4911 6.91648 22.5969 6.50003 22.1022C5.08092 20.4196 2.69603 17.04 3.58892 14.6867C6.72803 6.41558 10.6418 6.62313 10.6418 6.62313C11.9063 5.76358 16.4658 3.53958 21.6694 7.01202C21.6694 7.01202 25.5058 6.24847 28.3085 14.5396C29.1098 16.9116 26.784 20.2582 25.3969 21.9374C24.9831 22.4382 24.1898 22.3342 23.9116 21.7471L23.0338 19.896C22.9435 19.7072 22.9235 19.4925 22.9774 19.2902C23.2565 18.2454 24.06 14.7498 23.0307 12.4565" stroke="#444444" stroke-width="2" stroke-miterlimit="10" stroke-linecap="round" stroke-linejoin="round"/>
<path d="M23.3911 20.6502C23.3911 20.6502 22.0236 23.6373 19.9227 24.3262M8.63867 20.8751C8.63867 20.8751 10.0067 23.5782 12.1076 24.2671M16.0924 21.0395V19.6929" stroke="#444444" stroke-width="2" stroke-miterlimit="10" stroke-linecap="round" stroke-linejoin="round"/>
</svg>
