<svg width="22" height="20" viewBox="0 0 22 20" fill="none" xmlns="http://www.w3.org/2000/svg">
<path d="M18.08 13.72C17.49 10.19 14.1 7.32 10.52 7.32C6.63 7.32 3.21 10.47 2.88 14.35C2.75 15.85 3.23 17.27 4.22 18.34C5.2 19.41 6.58 20 8.08 20H12.76C14.45 20 15.93 19.34 16.94 18.15C17.95 16.96 18.35 15.38 18.08 13.72ZM9.28 5.86C10.0571 5.86 10.8023 5.5513 11.3518 5.00182C11.9013 4.45234 12.21 3.70708 12.21 2.93C12.21 2.15292 11.9013 1.40766 11.3518 0.858177C10.8023 0.308696 10.0571 0 9.28 0C8.50292 0 7.75766 0.308696 7.20818 0.858177C6.6587 1.40766 6.35 2.15292 6.35 2.93C6.35 3.70708 6.6587 4.45234 7.20818 5.00182C7.75766 5.5513 8.50292 5.86 9.28 5.86ZM15.94 7.028C16.5871 7.028 17.2078 6.77093 17.6653 6.31334C18.1229 5.85575 18.38 5.23513 18.38 4.588C18.38 3.94087 18.1229 3.32025 17.6653 2.86266C17.2078 2.40507 16.5871 2.148 15.94 2.148C15.2929 2.148 14.6722 2.40507 14.2147 2.86266C13.7571 3.32025 13.5 3.94087 13.5 4.588C13.5 5.23513 13.7571 5.85575 14.2147 6.31334C14.6722 6.77093 15.2929 7.028 15.94 7.028ZM19.55 10.931C19.8061 10.931 20.0596 10.8806 20.2962 10.7826C20.5328 10.6846 20.7478 10.5409 20.9289 10.3599C21.1099 10.1788 21.2536 9.96382 21.3516 9.72723C21.4496 9.49065 21.5 9.23708 21.5 8.981C21.5 8.72492 21.4496 8.47135 21.3516 8.23477C21.2536 7.99818 21.1099 7.78322 20.9289 7.60214C20.7478 7.42107 20.5328 7.27743 20.2962 7.17943C20.0596 7.08144 19.8061 7.031 19.55 7.031C19.0328 7.031 18.5368 7.23645 18.1711 7.60214C17.8054 7.96784 17.6 8.46383 17.6 8.981C17.6 9.49817 17.8054 9.99416 18.1711 10.3599C18.5368 10.7256 19.0328 10.931 19.55 10.931ZM2.94 8.982C3.26043 8.982 3.57771 8.91889 3.87375 8.79627C4.16978 8.67364 4.43877 8.49392 4.66534 8.26734C4.89192 8.04077 5.07164 7.77178 5.19427 7.47575C5.31689 7.17971 5.38 6.86243 5.38 6.542C5.38 6.22157 5.31689 5.90429 5.19427 5.60825C5.07164 5.31222 4.89192 5.04323 4.66534 4.81666C4.43877 4.59008 4.16978 4.41036 3.87375 4.28773C3.57771 4.16511 3.26043 4.102 2.94 4.102C2.29287 4.102 1.67225 4.35907 1.21466 4.81666C0.757071 5.27425 0.5 5.89487 0.5 6.542C0.5 7.18913 0.757071 7.80975 1.21466 8.26734C1.67225 8.72493 2.29287 8.982 2.94 8.982Z" fill="#8F8F8F"/>
</svg>
