<svg width="24" height="24" viewBox="0 0 24 24" fill="none" xmlns="http://www.w3.org/2000/svg">
<path d="M20.621 8.45C19.571 3.83 15.541 1.75 12.001 1.75H11.991C8.461 1.75 4.421 3.82 3.371 8.44C2.201 13.6 5.361 17.97 8.221 20.72C9.23472 21.7012 10.5902 22.2498 12.001 22.25C13.361 22.25 14.721 21.74 15.771 20.72C18.631 17.97 21.791 13.61 20.621 8.45ZM12.001 13.46C11.5873 13.46 11.1777 13.3785 10.7955 13.2202C10.4134 13.0619 10.0661 12.8299 9.77361 12.5374C9.4811 12.2449 9.24908 11.8976 9.09078 11.5155C8.93247 11.1333 8.851 10.7237 8.851 10.31C8.851 9.89634 8.93247 9.48672 9.09078 9.10455C9.24908 8.72237 9.4811 8.37512 9.77361 8.08261C10.0661 7.79011 10.4134 7.55808 10.7955 7.39978C11.1777 7.24148 11.5873 7.16 12.001 7.16C12.8364 7.16 13.6376 7.49187 14.2284 8.08261C14.8191 8.67335 15.151 9.47457 15.151 10.31C15.151 11.1454 14.8191 11.9466 14.2284 12.5374C13.6376 13.1281 12.8364 13.46 12.001 13.46Z" fill="#B4B4B4"/>
</svg>
