<svg width="20" height="20" viewBox="0 0 20 20" fill="none" xmlns="http://www.w3.org/2000/svg">
<path d="M14.8 0H12.2C9 0 7 2 7 5.2V9.25H11.44L9.37 7.18C9.29998 7.11069 9.24446 7.02813 9.20669 6.93713C9.16892 6.84613 9.14965 6.74852 9.15 6.65C9.15 6.46 9.22 6.27 9.37 6.12C9.66 5.83 10.14 5.83 10.43 6.12L13.78 9.47C14.07 9.76 14.07 10.24 13.78 10.53L10.43 13.88C10.14 14.17 9.66 14.17 9.37 13.88C9.23052 13.7389 9.1523 13.5484 9.1523 13.35C9.1523 13.1516 9.23052 12.9611 9.37 12.82L11.44 10.75H7V14.8C7 18 9 20 12.2 20H14.79C17.99 20 19.99 18 19.99 14.8V5.2C20 2 18 0 14.8 0ZM0.75 9.25C0.34 9.25 0 9.59 0 10C0 10.41 0.34 10.75 0.75 10.75H7V9.25H0.75Z" fill="#D2D2D2"/>
</svg>
