<svg width="18" height="20" viewBox="0 0 18 20" fill="none" xmlns="http://www.w3.org/2000/svg">
<path d="M5.92 3.85001C5.92 2.49001 4.82 1.39001 3.46 1.39001C2.1 1.39001 1 2.49001 1 3.85001C1 5.21001 2.1 6.31001 3.46 6.31001M14.54 18.62C15.9 18.62 17 17.52 17 16.16C17 14.8 15.9 13.7 14.54 13.7C13.18 13.7 12.08 14.8 12.08 16.16M14.54 6.31001C15.1924 6.31001 15.8181 6.05084 16.2795 5.5895C16.7408 5.12816 17 4.50245 17 3.85001C17 3.19758 16.7408 2.57187 16.2795 2.11053C15.8181 1.64919 15.1924 1.39001 14.54 1.39001C13.8876 1.39001 13.2619 1.64919 12.8005 2.11053C12.3392 2.57187 12.08 3.19758 12.08 3.85001C12.08 4.50245 12.3392 5.12816 12.8005 5.5895C13.2619 6.05084 13.8876 6.31001 14.54 6.31001ZM3.46 18.611C4.11243 18.611 4.73814 18.3518 5.19948 17.8905C5.66082 17.4292 5.92 16.8034 5.92 16.151C5.92 15.4986 5.66082 14.8729 5.19948 14.4115C4.73814 13.9502 4.11243 13.691 3.46 13.691C2.80757 13.691 2.18186 13.9502 1.72052 14.4115C1.25918 14.8729 1 15.4986 1 16.151C1 16.8034 1.25918 17.4292 1.72052 17.8905C2.18186 18.3518 2.80757 18.611 3.46 18.611Z" stroke="black" stroke-width="1.5" stroke-miterlimit="10" stroke-linecap="round" stroke-linejoin="round"/>
</svg>
