<svg width="21" height="20" viewBox="0 0 21 20" fill="none" xmlns="http://www.w3.org/2000/svg">
<path d="M18.1 7.22104C16.29 7.22104 15.55 5.94104 16.45 4.37104C16.97 3.46104 16.66 2.30104 15.75 1.78104L14.02 0.791035C13.23 0.321035 12.21 0.601035 11.74 1.39104L11.63 1.58104C10.73 3.15104 9.25 3.15104 8.34 1.58104L8.23 1.39104C8.1222 1.20202 7.97789 1.03632 7.80545 0.9036C7.63302 0.770876 7.43591 0.673772 7.2256 0.617937C7.01529 0.562101 6.79597 0.548651 6.58041 0.578368C6.36485 0.608086 6.15736 0.680377 5.97 0.791035L4.24 1.78104C3.33 2.30104 3.02 3.47104 3.54 4.38104C4.45 5.94104 3.71 7.22104 1.9 7.22104C0.86 7.22104 0 8.07104 0 9.12104V10.881C0 11.921 0.85 12.781 1.9 12.781C3.71 12.781 4.45 14.061 3.54 15.631C3.02 16.541 3.33 17.701 4.24 18.221L5.97 19.211C6.76 19.681 7.78 19.401 8.25 18.611L8.36 18.421C9.26 16.851 10.74 16.851 11.65 18.421L11.76 18.611C12.23 19.401 13.25 19.681 14.04 19.211L15.77 18.221C16.68 17.701 16.99 16.531 16.47 15.631C15.56 14.061 16.3 12.781 18.11 12.781C19.15 12.781 20.01 11.931 20.01 10.881V9.12104C20.0048 8.61702 19.8015 8.13528 19.4442 7.77981C19.0868 7.42433 18.604 7.22363 18.1 7.22104ZM10 13.251C8.21 13.251 6.75 11.791 6.75 10.001C6.75 8.21104 8.21 6.75104 10 6.75104C11.79 6.75104 13.25 8.21104 13.25 10.001C13.25 11.791 11.79 13.251 10 13.251Z" fill="#D2D2D2"/>
</svg>
