<svg width="16" height="20" viewBox="0 0 16 20" fill="none" xmlns="http://www.w3.org/2000/svg">
<path d="M7.99996 0C5.37996 0 3.24996 2.13 3.24996 4.75C3.24996 7.32 5.25996 9.4 7.87996 9.49C7.95996 9.48 8.03996 9.48 8.09996 9.49H8.16996C9.39932 9.44898 10.5645 8.93148 11.4192 8.04691C12.274 7.16234 12.7512 5.98004 12.75 4.75C12.75 2.13 10.62 0 7.99996 0ZM13.08 12.149C10.29 10.289 5.73996 10.289 2.92996 12.149C1.65996 12.999 0.959961 14.149 0.959961 15.379C0.959961 16.609 1.65996 17.749 2.91996 18.589C4.31996 19.529 6.15996 19.999 7.99996 19.999C9.83996 19.999 11.68 19.529 13.08 18.589C14.34 17.739 15.04 16.599 15.04 15.359C15.03 14.129 14.34 12.989 13.08 12.149Z" fill="#8F8F8F"/>
</svg>
